<mxfile host="app.diagrams.net" modified="2021-12-28T04:00:56.741Z" agent="5.0 (Macintosh; Intel Mac OS X 10_15_7) AppleWebKit/537.36 (KHTML, like Gecko) Chrome/96.0.4664.110 Safari/537.36" etag="jTtb35F0z6u9MkB9aK--" version="14.6.10" type="github">
  <diagram name="Page-1" id="a7904f86-f2b4-8e86-fa97-74104820619b">
    <mxGraphModel dx="1574" dy="2005" grid="1" gridSize="10" guides="1" tooltips="1" connect="1" arrows="1" fold="1" page="1" pageScale="1" pageWidth="1100" pageHeight="850" background="none" math="0" shadow="0">
      <root>
        <mxCell id="0" />
        <mxCell id="1" parent="0" />
        <mxCell id="pEGMGXlAXhKO9HlwLJ9M-1" value="" style="edgeStyle=orthogonalEdgeStyle;rounded=0;orthogonalLoop=1;jettySize=auto;html=1;" edge="1" parent="1" source="pEGMGXlAXhKO9HlwLJ9M-2" target="pEGMGXlAXhKO9HlwLJ9M-3">
          <mxGeometry relative="1" as="geometry" />
        </mxCell>
        <mxCell id="pEGMGXlAXhKO9HlwLJ9M-2" value="run" style="rounded=1;whiteSpace=wrap;html=1;" vertex="1" parent="1">
          <mxGeometry x="150" y="170" width="120" height="60" as="geometry" />
        </mxCell>
        <mxCell id="pEGMGXlAXhKO9HlwLJ9M-3" value="beforeCompile" style="rounded=1;whiteSpace=wrap;html=1;" vertex="1" parent="1">
          <mxGeometry x="325" y="170" width="120" height="60" as="geometry" />
        </mxCell>
        <mxCell id="pEGMGXlAXhKO9HlwLJ9M-4" style="edgeStyle=orthogonalEdgeStyle;rounded=0;orthogonalLoop=1;jettySize=auto;html=1;" edge="1" parent="1" source="pEGMGXlAXhKO9HlwLJ9M-5" target="pEGMGXlAXhKO9HlwLJ9M-2">
          <mxGeometry relative="1" as="geometry" />
        </mxCell>
        <mxCell id="pEGMGXlAXhKO9HlwLJ9M-5" value="beforeRun" style="rounded=0;whiteSpace=wrap;html=1;" vertex="1" parent="1">
          <mxGeometry x="-70" y="170" width="120" height="60" as="geometry" />
        </mxCell>
        <mxCell id="pEGMGXlAXhKO9HlwLJ9M-6" value="compile" style="rounded=1;whiteSpace=wrap;html=1;fillColor=#f5f5f5;strokeColor=#666666;fontColor=#333333;" vertex="1" parent="1">
          <mxGeometry x="490" y="170" width="120" height="60" as="geometry" />
        </mxCell>
        <mxCell id="pEGMGXlAXhKO9HlwLJ9M-7" value="make" style="rounded=1;whiteSpace=wrap;html=1;fillColor=#fff2cc;strokeColor=#d6b656;" vertex="1" parent="1">
          <mxGeometry x="660" y="170" width="120" height="60" as="geometry" />
        </mxCell>
        <mxCell id="pEGMGXlAXhKO9HlwLJ9M-8" value="compilatin.finish" style="rounded=0;whiteSpace=wrap;html=1;strokeColor=#FF0808;" vertex="1" parent="1">
          <mxGeometry x="820" y="170" width="120" height="60" as="geometry" />
        </mxCell>
        <mxCell id="pEGMGXlAXhKO9HlwLJ9M-9" value="compilatin.seal" style="rounded=0;whiteSpace=wrap;html=1;strokeColor=#FF0000;" vertex="1" parent="1">
          <mxGeometry x="960" y="170" width="120" height="60" as="geometry" />
        </mxCell>
        <mxCell id="pEGMGXlAXhKO9HlwLJ9M-10" value="afterCompile" style="rounded=0;whiteSpace=wrap;html=1;" vertex="1" parent="1">
          <mxGeometry x="1160" y="170" width="120" height="60" as="geometry" />
        </mxCell>
        <mxCell id="pEGMGXlAXhKO9HlwLJ9M-11" value="shouldEmit" style="rounded=0;whiteSpace=wrap;html=1;" vertex="1" parent="1">
          <mxGeometry x="1360" y="170" width="120" height="60" as="geometry" />
        </mxCell>
        <mxCell id="pEGMGXlAXhKO9HlwLJ9M-12" value="Done" style="rounded=0;whiteSpace=wrap;html=1;" vertex="1" parent="1">
          <mxGeometry x="1540" y="170" width="120" height="60" as="geometry" />
        </mxCell>
        <mxCell id="pEGMGXlAXhKO9HlwLJ9M-13" value="&lt;h1&gt;提示&lt;/h1&gt;&lt;div&gt;灰色 SyncHook&lt;/div&gt;&lt;div&gt;&lt;br&gt;&lt;/div&gt;" style="text;html=1;strokeColor=none;fillColor=none;spacing=5;spacingTop=-20;whiteSpace=wrap;overflow=hidden;rounded=0;" vertex="1" parent="1">
          <mxGeometry x="135" y="-70" width="190" height="120" as="geometry" />
        </mxCell>
        <mxCell id="pEGMGXlAXhKO9HlwLJ9M-14" value="AsyncParellel" style="text;html=1;strokeColor=none;fillColor=none;align=center;verticalAlign=middle;whiteSpace=wrap;rounded=0;" vertex="1" parent="1">
          <mxGeometry x="700" y="70" width="40" height="20" as="geometry" />
        </mxCell>
        <mxCell id="pEGMGXlAXhKO9HlwLJ9M-15" value="Compiler" style="text;html=1;strokeColor=none;fillColor=none;align=center;verticalAlign=middle;whiteSpace=wrap;rounded=0;" vertex="1" parent="1">
          <mxGeometry x="-50" y="290" width="40" height="20" as="geometry" />
        </mxCell>
        <mxCell id="pEGMGXlAXhKO9HlwLJ9M-16" value="&lt;div style=&quot;font-family: &amp;#34;menlo&amp;#34; , &amp;#34;monaco&amp;#34; , &amp;#34;courier new&amp;#34; , monospace ; line-height: 18px ; white-space: pre&quot;&gt;&lt;span style=&quot;background-color: rgb(255 , 255 , 255)&quot;&gt;compilationDependencies:new Set()&lt;/span&gt;&lt;/div&gt;" style="text;html=1;strokeColor=none;fillColor=none;align=center;verticalAlign=middle;whiteSpace=wrap;rounded=0;" vertex="1" parent="1">
          <mxGeometry x="50" y="340" width="230" height="40" as="geometry" />
        </mxCell>
        <mxCell id="pEGMGXlAXhKO9HlwLJ9M-17" value="准备阶段" style="text;html=1;strokeColor=none;fillColor=none;align=center;verticalAlign=middle;whiteSpace=wrap;rounded=0;" vertex="1" parent="1">
          <mxGeometry x="30" y="460" width="90" height="20" as="geometry" />
        </mxCell>
        <mxCell id="pEGMGXlAXhKO9HlwLJ9M-18" value="构建阶段" style="text;html=1;strokeColor=none;fillColor=none;align=center;verticalAlign=middle;whiteSpace=wrap;rounded=0;" vertex="1" parent="1">
          <mxGeometry x="210" y="460" width="90" height="20" as="geometry" />
        </mxCell>
        <mxCell id="pEGMGXlAXhKO9HlwLJ9M-19" value="文件生成" style="text;html=1;strokeColor=none;fillColor=none;align=center;verticalAlign=middle;whiteSpace=wrap;rounded=0;" vertex="1" parent="1">
          <mxGeometry x="540" y="460" width="90" height="20" as="geometry" />
        </mxCell>
        <mxCell id="pEGMGXlAXhKO9HlwLJ9M-20" value="entry-option" style="rounded=0;whiteSpace=wrap;html=1;strokeColor=#000000;" vertex="1" parent="1">
          <mxGeometry x="-280" y="170" width="120" height="60" as="geometry" />
        </mxCell>
        <mxCell id="pEGMGXlAXhKO9HlwLJ9M-21" value="WebpackOptionsApply&amp;nbsp; 将options转换成对应插件" style="text;html=1;strokeColor=none;fillColor=none;align=center;verticalAlign=middle;whiteSpace=wrap;rounded=0;" vertex="1" parent="1">
          <mxGeometry x="-440" y="70" width="180" height="40" as="geometry" />
        </mxCell>
        <mxCell id="pEGMGXlAXhKO9HlwLJ9M-22" value="EntryOptinsPlugin" style="text;html=1;strokeColor=none;fillColor=none;align=center;verticalAlign=middle;whiteSpace=wrap;rounded=0;" vertex="1" parent="1">
          <mxGeometry x="-290" width="120" height="40" as="geometry" />
        </mxCell>
        <mxCell id="pEGMGXlAXhKO9HlwLJ9M-23" value="WebpackOptionsDefaulter" style="text;html=1;strokeColor=none;fillColor=none;align=center;verticalAlign=middle;whiteSpace=wrap;rounded=0;" vertex="1" parent="1">
          <mxGeometry x="-600" width="170" height="40" as="geometry" />
        </mxCell>
        <mxCell id="pEGMGXlAXhKO9HlwLJ9M-24" value="compilation.addEntry" style="text;html=1;strokeColor=none;fillColor=none;align=center;verticalAlign=middle;whiteSpace=wrap;rounded=0;" vertex="1" parent="1">
          <mxGeometry x="-190" y="-100" width="130" height="40" as="geometry" />
        </mxCell>
        <mxCell id="pEGMGXlAXhKO9HlwLJ9M-25" value="build-module" style="text;html=1;strokeColor=none;fillColor=none;align=center;verticalAlign=middle;whiteSpace=wrap;rounded=0;" vertex="1" parent="1">
          <mxGeometry x="850" y="65" width="90" height="30" as="geometry" />
        </mxCell>
        <mxCell id="pEGMGXlAXhKO9HlwLJ9M-26" value="&lt;h1&gt;webpack/lib/webpack.js&lt;/h1&gt;&lt;p&gt;初始化的时候会webpackOptinsApplay对options进行插件注册；⚠️（EntryOptionsPlugin）初始化入口的插件；此插件会根据情况调用（SingleEntryPlugin 后者MutiEntryPlugin&lt;/p&gt;&lt;p&gt;// context 当前文件夹路径，entry为配置的entry&lt;/p&gt;&lt;div style=&quot;color: rgb(212 , 212 , 212) ; background-color: rgb(30 , 30 , 30) ; font-family: &amp;#34;menlo&amp;#34; , &amp;#34;monaco&amp;#34; , &amp;#34;courier new&amp;#34; , monospace ; line-height: 18px ; white-space: pre&quot;&gt;&lt;span style=&quot;color: #9cdcfe&quot;&gt;compiler&lt;/span&gt;.&lt;span style=&quot;color: #9cdcfe&quot;&gt;hooks&lt;/span&gt;.&lt;span style=&quot;color: #9cdcfe&quot;&gt;entryOption&lt;/span&gt;.&lt;span style=&quot;color: #dcdcaa&quot;&gt;call&lt;/span&gt;(&lt;span style=&quot;color: #9cdcfe&quot;&gt;options&lt;/span&gt;.&lt;span style=&quot;color: #9cdcfe&quot;&gt;context&lt;/span&gt;, &lt;span style=&quot;color: #9cdcfe&quot;&gt;options&lt;/span&gt;.&lt;span style=&quot;color: #9cdcfe&quot;&gt;entry&lt;/span&gt;)&lt;/div&gt;&lt;p&gt;&lt;br&gt;&lt;/p&gt;&lt;p&gt;SingleEntryPlugin会注册make和complation事件的监听；&lt;br&gt;&lt;br&gt;&lt;img src=&quot;data:image/png;base64,iVBORw0KGgoAAAANSUhEUgAAAZQAAACeCAYAAAAVKfxyAAAgAElEQVR4Ae2d93cVR5bH9/+YXVsIgcggEUROIueMSSbnjEU0mIxJImcBA4bBYMDY2B4MxgMYzJAMtsHYHnvm7GyYzeHs7J6d8fGe2vOp59vq1+ruF/QkvSfdH/p0qKpbt27dvt+6t7qr/uKFF14weqgMVAdUB1QHVAfKqwN/UV4ClV1+0Kxlpm2vQVEgyLMZxSft0aJj96i0iuCvQV4LM2njQZOVnZ3SuhrmF1i62Tk5KaVbETKIl2aXoWNNnwmzo9rTccBIp796jp0elRYv3bB8fnWG5U/ntOvXr5vNmzenXEbp3GblLXOBLeMA5cCXfzTzDl6IesGmbTtu1n3wxBz9/v/M8IVrotIqQjm7Dhtn66rbsHFK6yocMcHSBVgqgu+qoLnywl1T/OnfRrWn/9SFtr+OfPODWXnh06i0eHhcdfHXof3sV2c8dJPNs3nzHFNSsiLhdsSqb9SoUebp06emWbNmKacdq25Nz1yjXpV9l3GA0qprL4OH4Ce0ku8UUPzkUpXPmhS0Nc07FPr2V/Hdv0sKUA48/aOZs/esL03aGlZnRcji0qUt5vbtQ4H8JFvnjRs3zMWLF1NON1l+tJyCTCwdSApQ6jfNNxuvfmVKvvvRjqh33f9Hk107EqbpMmSM2ff5f9rnh7/+kxm19HX7QrTvO9wcev6/hmeHv/mz2fTR17b8tK3HbDpeBnR2P/oXW3b3w382zdp0dF4m0g8++297TFy/33nubqAfoNSp39Csfe+xrYt0PBl3SGn9L78wi9+4akfRpMNjvSbhI0LxUJaduWHp7nvyH6bPxLkOT0EygFe8j623fmeo68i3P5glpz4yWVlZtqzbQ+HZ6ncfml0P/snUbdTUpg+dt9KRD2WD5OCWiVzjuSE/vDg8g7Eriy3NF7NqmeVnb1le4GnLzd8a+pdyyG3/l/9led147bktR/80KWhnaCN9uf7KlzYdufUeP8uWoyxhJ+mv1e88cJ4LP5z9AKVw+HhbJ3yiX/AjA4hFx963dUoa9aMnQjOszjC5E76EF+pCBvRPEAhKXZxnzhxuvv76jPnuu3P24JqjQ4fmlqd162bY+++/f8t8882b5vTptU5fX7my03z88V7z/Hmk/AcfFJvataNDqHgny5Ytc9rnrluv1binow4kBSi8eBglwKDTwJfMa5fumZzcBvZlwbDsffLvhnmNTdeeWwOW376LwVBgCEYWrbeAAnjMP3jRXiOYRUcv23QMPsYPY+EOhzQtaG9pQN8b8hLBYgy8Ia81lx9ZXses2GbBDUM8Yd0+5yXdee8Ptt7NH//GDJ693Cw4fMkxqELXexZAwZgNnLHYGn0J6wAEQTKADgYY2cHPwiPv2rpHL99i+RFAadyitdnw4TMrm1aFvR1eD371P1bWrbv3s/L1ttXLp9x3Hjza1kN/9Bg9xYws2mAAaNLHr9lt05DpuFU7LLAgM9Jo0467f28WHXvP5mFwQL9ggJn7oD/3Pv43ywtyBHykToCcPn/942/LhLwkjx+g9Bo308zZd8506D/cypbBB8BGGXSA+Rfku+LcLXvdpueAuOoMk/vc/edtW167dN8MmbPC9k+QjgnvnBs1qm8GDuhqgeHhw2P2mnsBhvXrZ5pVq6aYXr06mNWrpxqAZeXKyZbf+/eP2vs9e4rMli1zLSAtXDjGaUuHDh3Ms2fPzNChQ51n7rr1WgElHXUgYUDBUGBIeAm9DWrfd6hNYyRNGiN98k7ZXOIACs8xPotPXjUYZkCAZwIoABP3GFvmS7h2H35zKJLuByg8237nb6wRxBBSN2AmZbjHaMl9PGcBlL6T59tyGGJG05QNkwHpANqKc5849dEevDXSBFAw5NBr2bmHkw9PgmcYPQAnHj4lD8BMWWjIMzkzOMDDknsGBwAe9/CBVwAI0Y/yDNAVQAGEeS55xLsRemHzGX6AQjn47Dlmmpm86bAFa7wiocc5VsjLr84wuQugiOfKoGbb7b+OqtNdv/c6LORVr15dM2/eKLNp02zrpZw6FZnjA1CePDnh1HHvXom5eDHizUN/3LhxFlBatWrl5PHWq/fRtkHlUfXySBhQCF1hXLqPioy03J04YHqRTXOHqjDWRSeuWEAR8MDALyy5bEehYqgAFEaeQo/RN2nyksvzRAAFwwsNRtEYTjnWXP7MqQdA2XDlqXMv9YSdBVDqNY6EoqTdlJFrPxngvcAPXoHQx2sgrMW9AArGj3zer6MALuRJGiDQbeQkh47Q8ztvvflb62n4pe357F+t1yRpGHHocw+gzD/0tg1fSd8RDqI/BVCknQwEKCcAI/T8jLuk+QEKbaYudIG6CJsRQpUynBMFlFhyB1Dcg5elp69HhdLcdftdBwHK/v1LrOfx+ecnzc2b++31W29ttG0BUAh7Cb0LFzZFAYx4KMOGDXPySF49V73h1D7w74OEAYURKIZDQiZuwUpoRUbuYmRm7HgjLkCBrnyKO3v3GRtecdPnOhxQfrShJCnDSBeajLLlmfcMoLx6/o5ver9+/cy5c+fMiROlI0nKC6DIV14CIqSFyYB0PAW8M+GD8CBAx70ACmEu5qgAD7/5HLwBwktuT4vye/bssfwyuhX6nJmLEa/D/Zzr7bd/H2U8l79503pRpFlAOXgxFFAE9AhFIWvv3EMYoAAYEs4SvmiT2ztg8FEGUHy+9JPynP3qDJN7LEDJycmxckUXWrcu6x0CKJ9+ejhK5tnZtSyAENKCJ0CNuZbz5zfZewDlwYPI/CHpt24diAIYnjGHsnx5xAPkXg+VQbrrQMKAQoMY8WPYMWwYbeYk8CRq5+Rag7nlxvf2SxuJvWNsiKfLKDfIQ8Eg8fUORglDS+jBK8AwQME4YqSItdepFwmd8YxRLrxCi4lb99xDGKAsWLDAhh14sd18hAFKmAygQdvhh39piNfT5pk7T1v6AihMIDMRD6AgS8rRnpdX73LkDAi5DS95Hj58aPktLo5MuAvPg2YutfUQqoIu8h06b5WlO3ffW7ZfmAvC+2SeBo+GsvEACnNPfFUFMLg9TKnbz7hLGn1NmXZ9hhjx9gj/7bz/D7a9hE7RGS+g4FECPNTrF8bzqzNM7rEApUGDBlauzGn079/fykbawJnJ92+/PWt69mzvTLoDIEzEnzy52hD2OnRomZ0zcQMKADN58mAzalRvCzbMt7jp6ldeCiBufciE66QAhYlQRsgYQw5GvxhSGjxi0VprBCRNvAOMsAMot39v50gkfEY5Ql6EeiTcw5kviUSIjDCFppwZeUs6ZyZ0ASLSJYzFBwHy5ZiUw7BKOQsob9127uU55/nz5/sCCqAELeaTyOf2ULgPkgFpAAlGVHgB8ER2bkAhL19NkW/8mj32QwG3DAAlb9gxCFCgRYhR6uTMxDfPASom3iUNQCno1temOYAyZIzTd4DNK8c/cEJe8kVfhM/SUB5gJzTlTKiKOuUA+KFHOpP9PKdNXPMMfaF/vIBCuI1QnS3nmv8KqzNM7oBqWMjLDSh4rcK/nPPzG9vPhgEIJt47d478RyST7Tzja66nT08Zd8jr2bPTNj/pzKc0blw/ivbYsWOtl9K4cWr/dxK+9VyqiyqL1MgiKUAR4TNC5Isj7yiRsBWgI16C5A87AyjMC1DWj2ZY2XjS+PQUoyKT/vGUKU+eWDJgwr1R88R+YGTUy0oAeW07RRmeePnk025k4J04pzzzTYmsMiBzKNDk36BE+joefgn7efUqnnKx8iQj91g0w9L54ksAxp2PkNe5cxtNw4a5vumS986dO2bHjh1J9bfQ0HNqjKXKMbYcywUoqRSwAEoqaSqt2AqQrIzcgJIsjZpcTgClJstA215x72dVyTZtAIUfA+Unx6oShtYbv4IzD8PXUHhNKrf45SayWr9+hpk1a4TKzhUCFdnoOXF9SheZpQ2gpItAlI/MVWbtO+071YGq1QEFFB0h6ShZdUB1QHUgJTqQMKB07tw5JRXrSKJqRxIqf5W/6oDqQKp1QAFFRyY6QFAdUB1QHUiJDiigqCKlRJFSPdJRejp6Vh3IPB3ICEBplJtjJvXtYhrXr2tysmvZ61ZNIn/Cu5Uur2F906R+XV8D2bxRfVvOnb8813MH9zCLR/axR61q+qVTw9wcp43Ivzzy8iubaJ/Eqwd+demzzDNO2meZ12cZASgDOhaYx7uXmSGdWxuMENfzhvR0DNyE3l3Mx5sW2Oek3d0eWT/JrZAv9+pkPtu11CnjTkvmes+sUeb8imm2zjqefSzC6F14dbrDJ7xy8CysjDtt/5wxZlzP0n1i3GnJXK8Y3d/hB/nQpsEdI+tVIeujC8eb6xvnmxuvL4ibx3j5SLRPYulBvPVqvswzVNpnmdFnGQ8oeAe/3l5kds8cZerXqW09lDUvR+85jzLm5tQ2HfJTu4RFz9bNEwaUi69ON++tnmXaNmvkHHkN6sVtrG9tXmgAgVS9YNB6uHOpadm4gRnUubW5sm6OubP1lSj6q18eVCGAkmifKKBkhlFJlW4qnczr74wHFDHqXVoG77J4Y/NC88mWReajjfOiDCVezjuvzTTnlk+13gujcwwripxdK8uceGWiff7ptlfMG0UTzYE5pWuLkUfq9noorZs2NJdXz7Jl7xUvNktfKl3/CUChHr+XJYyfDROHWM8LjwYAwAvD+Lvp0M4lL/V1vLW3VkwzgBX8924b2UWQ/ISvyAsYC6AInZGF7SxI0jZ55gcoHfMbW+CRtvdr39LKWMoM7dLW8ojXg5cDSLkBPZk+UUDJPAMj+qDnmtF3GQEozI1g+AjB1K2dba8xaCgpRhEDi8FiTqNp/cgilW4F7l6Qb14dM6BMyGvV2IHWeAIUo7u1Nxj/1eMGWrpT+nW1+RcN722WvdTP5nt75QzHyELfD1DgBy/i6vq5ZliXtpZXQECACkChHkBMDuqCXhg/AEPXls0sOOya8ZK9bp8X7XFhvDnw1jDo0pZrG+aZkgUvO7wDdqeXRPZS8QLK1inDbVvdcvQDlB6t820+vAx4H961rb0XuQPg77420wBQ1I8M6AdJT6ZPwvRA6Oq5Zhgu7ef07OeMAJRYyoNxkvkMDOqOGS85hkvK+sXrxYDjjZCPkbTMZxxfNMFg/KU8czTxAEqfdi2t8SyePtLO8+B1EJLDw4AWNPEYAAU5MMakhfEjfISFvGj7qcVlN92aP7SXBV3aCVBg3AE7aAIo3H+wdrbjAe2dNdppN3kSBRSZ5+pWkGfpjO3ZsQygQDfRPhEZ6Dk9jYn2i/ZLtQAUUeQGdWub9ROGWONFCEaecw4yXoReJN/2aSOcMBKGG1CQNAx1PIAyrX+hrV+8Dznj5UArLOQFoATxI3zEApTZg7o7PEsZvDrABk+IOgA4SQNQSOM8a1B3w5dUkibnRAFlYp9OVgZ4a9AgBOj1UHieaJ8IP3pWw6U6kJ46UK0ARZTswY4ldlQt95wTNV4niyZGzXUw/+IFFEJQGEo+Z5a6+EKKZ4SE5Jn7XF5AAXAklOWmyzXAgDfgfc79zxdNMJdWzbCAtWXKcCePN+TlV3b56P5lJuoJOdJOvBHKFI3oY++55pNu0pAP94QTuXeHvHieaJ9QJtbRs2dPw8ZovXr1ipk3Fi1Njy1vlZHKyK0DGQ8oGC9CNIyC+UdlzuAe1ni5J4BpcKLGa+bAbtZAM4E9Y2A3S9MLKC+yS+LOpWbd+EGGfzYYkTNJDaDhmRQ0aWifYeQFYACU99fMNp2aN3UO8sFjPB4KwEB5QlfiAUiHhgFK/w6tbBsw7MhKysQDKIWt8mxZPtvGC6Qsbac+wK1Fo/rOPInQJayHDGg3X7VVFqAcPXrUbop27Fjp9rrCk57V+KkOVKwOZDygMELmiycMFgcT3jtcoSoMpqS5z4R2Vo4ZEBhiAhhkXgaaTLJjIL0KyfwEISRozx7cw6YP6ljgPOM5oCNzFn7/oTA/A90wfqReQnnwAl136Ip0DPyYHh3K8ChlMfIfrp8blR4PoFAe0IY+9YpXIhP4PGMCnrPUBR8AK8+QG2dAlPRk+0Roh53Pnj1rAWXbtm0OL2H5Na1iDYzKt2bJN+MBRRSWETv/dsh9qs7iBfBjH1+RJUKXkTvegNBIpGyq8/KPDoCAB5dK2gBzvToRr8WPLm3nR0zAxS891c/YBvnp06eGbXtTTVvp1SzjqP2deH9XG0BJdecTSuMPcSbqGX1jjPlsNdX1VAY9PghgMh9PjrBgZdS5b/Zo+x8Png0eHvcVXS8gApjs3Lmzwuuq6LYo/cSNmcqs6mWmgBIw0UvIC0PMPyqEter99L9FJiot/DPXIaGqymgDoTnAmE+jZf6oMurVOqreqGgf1Nw+UEAJABR9KWruS6F9r32vOpCcDiigKKBoeEh1QHVAdSAlOqCAooqUEkXSEV1yIzqVW/WW2+bNm03QUR37XgFFAUUBRXVAdaCCdAAw+Vmdn5U5eK6A8sILRveUr94jqvIoeU5O2WVbykNPy6quBelApuiaH6C8WO9Fs2XLFgUUOreqAWXPnj3mgw8+SJvOGDRrmWnbK3r/FZ7NKD5pjxYdy66tFfSSxPvcr854y1ZEvgsXLtifCR89epQ2/ZJIOxvktXD6a9TS1yukDVnZ2WbSxoOGumLxVhn8xOIhndPr1atnPw8P+0Sc/5GmTi37I3Jlt8sNKIV9C83nn39u35W33347ph5UNq+pqC+jQl7yn8GMGdHLyKdCEMnSOPDlH828gxeilGPatuNm3QdPzNHv/88MX7gmKi1WPXXqNTDFn/6tadk5+AdEvzpj0a2odF7uZ8+embVr1ybUzoriJxm6eW072f7a9+Q/zP4v/8tpR/MOhbYP9z7+N+fZlhvf22d9JkavOBCr3roNG9tyXYaOdWgFlQniJyi/+/nOe3+w9aB7cqCL7jzJXq+6+OuE9TnZumKVy8rKMqdPn7YG2i/voUOHzN27d1PSbj/68T5zA8rRnx81n332manbtK6dV4mXRiblyyhAwTuhQ9JJwK269gocdZZ8lzig1Gvc1BqCzoODfwQMq7OyZdOuXTsLKL17906rfklGDvMPXowCFLxLMcrIHFCgT3nWf2rpKtXx1JUIoAg9Lz/yPOy88/4/mO13/sa07t7PORq3iGzpHFYunrQDT/9o5uw9mzb9vGTJEuup+PGen59v9XLChAlVyq8bUN65/I758NqHdj6F5358Z/qzjAKUGzdumIsXL5bpiBezaplFRy+bw9/82b7sKH7HAZGl5xvmF5itt35nDcGRb38wS059ZBjdtO873Bx6/r/m8Nd/suU2ffS1KfnuRzNta2RRQbyMXff/0ex+9C+W5u6H/2yatSldyZf0g8/+2x4T1+8vwxOK4QcoE9bts3VilI5884NZevq65Yf822//PioN3lacu+XQDquzy5AxZt/n/2l5pZw7dLP2vcdmzeXPbDo8vXbpnkFmqVDeLl262Be3W7ducdML4we+lp+9ZegreN1y87emftPSlZsBWvoNmdNO8szd95aZvOmQBQPudz34J7Pns3+16b3Hz7J8hcld5OA14AIoO+7+vVl45F3z8updRjwAAZQwuZMHXuFp49WvbN+Ih7L63YdmweFLjsw2XXtuZux4w7mHJy8/wmf/aYsMOo4OoYNubwlAef3jb6PoSLlYMuCdQHbwyyG6t+jY+45e8o4gd94HoRsmA/Ks/+UXZvEbV63nDV1kUtC9rz13G1m6fw86i/dNeFBoh51feeWVQECh3P37902qFgnt//qHpuu8vaZuXpu4eBO+3YDy/i/fNx9eVUCJEmBVzqE8efLE4KVIZ8l55s5T9uVacuqa6TTwJTN79xnTZ8Jsm2/9lS+t4R6zYps1CryEo5dvMYXDx9syI4vWW0ABPHiBASXoAlDkJVxA2IqXaOWFT526mxa0tzR4ObwhL+GLl8cb8sIQjlu1w867YKCoY+zKYkuXUWXPsdPtM14uQDG/fZeYdQKQ8LH3yb8b5lcwTtCVsoTQuGdeZ/ya3faa9guf5TkXFxfblzo7TiNAXWH8CH/IFDkBLGsul87N9Bg9xfJPf8ze86YZPHu5Gb9mj+0DAHrYgtU2fdmZGxaMNl57btsZJndpv9eAC6Aw94GhY+QPcCFLwCKW3DH2tJU+IZxGOQEUnhNCkroBwMUnrzr3PPfywzMJw6HXvcbNNBuuPLW6KXQAFOTAIEoOmeMLk0FObgOr++gQMoT2sjO/svyg6+giOgbIcN2m5wCbFksG8CUgvPnj39j+AkgZJBBKZHDh8H7vD4aBndzHOnfq1MkOZqZMmeJb5sqVK+batWu+aV7atXLqmxElX/keeb3GmJZDZ5tBO2+bEUefm/6br5rm/Sc7A0EvLfe9AEqjlo1seK7keIl6KG4BVSWgEKtfvnx5GQUh7s0L6uZTrjFIK8594qRhGFBaARTyofC8zF2HjbMjM54JoPCicc8IlbJCV848SwRQKMc8ydB5K83kTYftyw8QCr14Ql7eOtv3HWqNFTShU69JM3s/ZXOJvUc27hElhgFjLHUmc540aZL54osv7Esyd25i8wlh/OCRYHyFJ7wpDKTcC6Bg2OUZZ/qAQQHXAHnfyfPN3P3nDd6F5AuTO3m8BlwABaBHjwAEDKEASpjc8WbJJ6HLEYvW2vvyAgp6CF36FqBjkMA9AEAbABSADECVg3bEkgEDH+jwDkhe79kv5BUmAynP+yUDNXnGGf3H48nOyTFNCtrZ+vG+3HliXb/++ut2QMNkN+FXd/4zZ86Ye/fuRT1zp7uvAcbGXQb6Htm5pds91G/VxRQuPGiGH/7SDDv0uWkxMHziH0C5+tFVC3yf3P7E5LXNU0BxC74qASXIQ0Ep3eED4Rcl4SVh1CvPGL3j1gMoGB6eM/JcWHLZdOg/3ObnGYCC4ZVy8sKh/PKMs9e4u9P8PBSMHM8JT2E84f3Vt247NJMBlAHTiyzf7pAcL3DRiSuWLgb8tUv3nTr8RsNuvuO5btSokZk8ebK5c+eO4YuaeMpInjB+4I3Rt+TF6NCHci+A4m4raQCKgAfy7Tlmmpm167Tta9JjyZ08QYDSqrC3DU1u+PCZ5QN+8FDC5P7S4o2WbwktMgdDufICCiN6dAbdcR/wQhvCQl5hMpi587TzPkDH7/ADlDAZCA0ABU9K7uVcp35DWycRA3jzAx3J63eWr7346nPUqFGmdu3oVa/xUK5ejfb6/OhEnmWZ3Pz2vket2qXvfFZ2jvVWBm772Hor7cavKtMudx0ACl93Fe8utqBStLxIAcUtoKoElKA5FEZkuNNuPuWal88dSsCl50WMB1AwABLPJYxGmEXoyjkcUH40hNokL7QwduIdYGwsoJy/4+Sp2ygyKR8WkvLWySgYXhmVUxdeFfcSk8eAxwqvzJs3z8yfHykv/MZzHjFihH1RvKPDsLJh/DCP5Pamlr9503oHQk8ApXZOriMz0gCU4rt/Z595ASUeuUODPj741f84dMVDAVCkfs7IFkAJk3tBt742H94NZQbOWGzvBVDQQbeRxQNy66kfPzwjDzojQMUz9xEEKLFkQIiVdrXp0T+Knpu2V+9IC5OBlAVQXnXpuDznjAzQB2gzz+JOi3U9c+ZMq3sMbvzyPnjwIO45lOy6DS1AENLyHvl9JpiG7XqbHktP2pAYnknn2TtMnSbR24z78SAhL35uvHHzhmFinmue++XP9GcZNSkf9JUXsV6MCC8FLxoTsRJqwPsAcIgjD5mzwr40jMbiBRS+aiFuDRD5fX7p95KJUmAciWMTgybcgsfEKAyjwP38Q29bfrwvG8BFuIIRHGWEnpy9dWJc7aj1xvemSUFbs+jYe5aufJgQZsCFJuFEDrmP9yxfeSWy5W4YP0yw05cYYCaJMfBbb/7W4SspQIlT7mIc+01eYENbsQAlltzpa0J2hHMAEAy2AIodkX/9J8MnwjJv5AUULz/0CXoLHTxqvFm+HuNDEgYipAcCSgwZNGpeYOXOwIx2o3vMTbn1AONPWBEdE0CLJQPLUwigEKqjPRx4ce76Yl2HfeWVl5dn9RkvOhYdScf78DteeCHLDN7z64TmToSmG1D0Ky/P6AchVaWHwkiEn5m8Pyyh/Jt/9Z2jmBgkiSkDJISuRGkx8rwE7vkSnhGbxoCRj3YS8mLUKLFzznzNIoqCAReacubLHUnnDA8AEekyGp265ag1/jyDL8II7pAX5YiLC31CdEJTnkl9nKVOYvS0W9L4MkfKAaorL5R+k09YqejEh046cgVMkK2UiffMv0GUXbx4cdxlw/gBaAldSTsAFEb7wo8Aijf0iIEu9VB+NORj4EB4k7LxyJ18fHghcuQLJPjw81AAHfKHyV0m8KHhnZRnUpuBDmnoAYe7T6S9bn7kI4vp23/u8Eh5gEu+hMMbCPrKK5YMhs5b5eg7dBkMCR+c+WAE3ZE6JS1MBuSxHoorrCvl5Ezb+ZpS7uM9s90zcyd++Q8cOBD3/Ilfee8zPBjvs3ju3YBy5uwZ8/DRQ/NXuX+lHooIryoBBR74DPD69eu+nctorV2fITbkI/zKmR8FGYXJfawzgIIRIFRA2EJGZLHKxZOeXTsn9MfFeGj45YFXDBVG2S896BmhLkBh7969CZUTenxJQ/lU/kjGvxPuyWSpqzznqpA7g52wn1TD0sLaij4SnvLOJYWVIS0eGeApCHjFoifpyeoeH5AA4HyBJrRinXNzc+0HIejc8ePHfcsBNMmEcGPVnWi6G1BGTxxtB20M3FhdIlFamZA/o0JelSlQAZTKrLOq6jp58qQd6THJmSwPhBiqerCRLO9aLnoeprLkwUcTeOiEeIkaJFIv/z0FzZ0kQqei87oBhbmTrAZZpl1hW7Njx46E2lvRfKaKvgKKT1gP4fKzmPzkmCphK52qMVwq9/SUO1/w8TFFot5QJvWnF1Bk5WGeZ1I74uVVASUAUOIVoOZLT2Ol/W7zJM0AACAASURBVKL9kg46oIASw8BqWENf1HR4UZUH1cNM0AEAJejIBP4T5TEjPJQFCyJf1CTaOM2vRkd1QHVAdaDydEABJYZHpspYecqoslZZqw5ktg4ooCigVMvJQTVMmW2YtP8ys/8UUNIQUPjHgJV25Wc1ebn4Vl92gkzlfzHQD6pT6q7IM+uk8VNpRdaRCG1+aEx0kcJE6FfXvKwCIKt8Z3ob+detun6JVZF9o4CShoDCz3D8jexdz4slWvh7mbREf15kscSwpcGD6qxI5RPaLCXDkityX9Vn1j3jb/6q4oO+oo+9B0v4lJenWHpQHvqsxsCyOuWhURllx4zpaz76KHpZGXe9LDTJz4fNmjVL+7a4+U6HawWUNAQU1u9ixO73s1fhiAlJAQqr37J0S5DShdUZVCZVzxVQosMbsicOC1CySoMcqfBKY+lBefqUNb5Y9648NCqj7OLFL5vvvjsXyGfQIrSVwVum16GAEgIoGHW/HezodDbF4g9fRpGs18XS9zyPtXMga3qxAB/rF7HkBAtOshyGKBK727HGEwd7TchzOQcBCms+ybpj0GZJcMqwHA33kgbPHCykKTSD6sSABe2eCG/QZcdJgIplatw7BwptvzNGR9aEQr7w4/ZQWI2Z9amQLYsRipFiLTXysrw9sqN+2ZGRelgyhHWjSGMPFdbykvrDdokEuFmaXmiy2rHbQwnbIZFtCNh0ysr1mz/bNcOkTuTHigvSFv4KZ8FOPA14D9qtUADFvYaZ0MQzZQFIeBXdY1M5SQ+qM5YehPU1tFmoEp4Ju9JW6pc+I9QlOrv6nQcOL5TD85Ul9ylj9f2nLSCQu2yAR1vQIfiQtoSd580bZR49Om6+//4t8+23Z8369ZH9YCjTtWtrc+9eiQWNb7550+zcGdmuuWHDXPP8+Rmbn3Jff33GHkuXRm8TjHeybNmyuPgI47EmpimgBABK2A52rL/ECwA4sGMgRoUXCgXiz9+wnQMxBpTFaEYW64ve1ZH1mTCS5PGGvKAfBCgsLDho5lLr2bChGOVZyRbPAyNGfbzQXHO452eC6pRVcGmTd/dEFtekDowvKwMDDPGGO9iOmEUf2RkQQw4dMU4AodyzACO7+snCmmJoecYuiIAHm6shFwwRBhugAgBYJRo6Akbwxr3frpVjVmy1smEwwCKT5BNAoTz3QTskIlP6m50/CflwLytEh+0kGrZbobQTXZFdF2VvG4CB0Gf3UZOtLiAD95L7QXXG0oOwvka+signYIIuyU6ZpAEa6CqLUnp1gN02kQ/bODCIYWDDVsSUi+jkj3bRSRZxZfVt1gQjLdbx1Ve/MJcubTE9erQzs2aNMAsXRhZupZ1Pn54yn332czNt2lCzd2+RBZ0OHVrafhk4oKvZs6fIgg3XHM2alS782KFDB7su3dChZQdzsXjS9BeMAkqA8sqGWn472MlLy4uEEo0s2mCNDqvSYnzDdg7ESODRiPJhENx7lfA8bD4jCFAoR8gB48jIHCNIyETqiRXq8KuTJdcZNQoN9+6JAiiyBwuAExZSExqcGeli8LmWDcUEUJAH6exGyIFsMNIAvBhajBllxcgBjnLNsv9SFs9AVl3G0Ln3WaEODBp08NBYcZprDkJwAiixdkiEN1l2XnYdlK0TwnYSDdutUNoJ8Mqui7RJ+OPMIqB4C6w2TV9LWlid5AnSg7C+ppzI17tTptTL2W8OBfkgS+kT+lfejzn7zlmdob3xeibUA2gQsgJQWrRo7LSdtNGj+1gAOXNmndm4cZY98FKOHYvsZkqesJDXuHHjLKC0atUqii7l9IgtAwWUAEXBKPMy+CkRYR4MkqTJbnx4FgBK2M6BAIp7R0JCVW6AgaafcZe6ggCFZe7hF09B9t5gOXIpF2RIJN2vTkb7bl7duycKoAAI0JCd+4Re0Fm2J8abkjwYfgEURtuMgmmD+8BYi6GVFXZlIzEAhhAkhtVdhmsWIKQeACVo10o8Gwy38IMsBVAkXOOlKzskInMGFFIWHgRkAVi/nUTJi7wp67dbobTTL+RFmAgZMdIXkKROWc4/rE7qDdKDsL6mnACKyF7a6z57AYUVo+ENb8wtP4CScqz+jZzJgywIr7rphV2vWjXFABSErp48OWlGjozspbJy5WT77ObN/cZ97NpVurVwGKCIhzJs2LC4eQnjs6alKaAEAErYDnYSTpG5D8IvvBQsnQ+glO7LUXYrWgAFoy+KRkhDQjryzM+4SxrhKupyL8UvuwPKyJiYNnkIKUk5jB4vrdx7z351Mmp3j+rduycKoBCCgZYfoLAh2rlz5wyjPnd9hEBk4U0MJLwKoFCfjGDdZbgWQyufpoosCEthxKHj51FSFuPr9gQxoOJZEKpx7/iJARRAIQ9GOmgEHQGU9U774EEAhTCom663PfQ7fOERuXcrlHb6AQojfcBEAAS5USdyhH6sOoP0IKyvoSuAIvV428K9F1CQGbyJl+hXhmd4mNIO2ceI5/369bP6c+LECUe+Xhp4JF9++Ya5f/+ozTN58mALKMOG9QgsU1QUPinPHMry5REv2Fuf3od7KQooAYAStoOdGFP2IGfkDChgJAGYeAAFI8T8AHFwjBXhIrei+hl3Scfdpww79jXIa2Hr5CsgXlxCXHZ3wBvf23s3oMhcAM/84tR+dfKSw6vf7okigzBAYa959qwoLi6Oah8eABsqscqs7FopgCJgzZwEfJIHz4j2i6HFSBPew3sQT5HJagwtI2HmuChLWwVgwgCFMA5lmQcQYBRA4RmyDdohMQxQwnYSpT1BuxVKO/0AZcrmEtv/tJ/JeADEDSix6gzSg7C+htdkAIVyABU8Up57BjuEk7nGS2XuhGuRs9tzZckl9AcDTx456tWra1avnmpycrJNTk5t64ncvh0JCZLGJD3eSefOBSY7u5ZZsGC0cQMM8yl4NjwnXejKWb/yKpW1yCTeswKKS1G9QgvbwW7JqWv2ReZlxqhIeCnWzoF4KGIEKEu4S8JGfMXEM+8hX2wJfxhA+XJIJjjXvv/EKcdLDA3hScoxIhbaEgsPqxMjHbR7onhBABH0xRBLXZyDAIWwHaAILwAxxlwABSBwt4U8tAd6Ymj5CELawWSy1InnInIhnTrkB0UAghG05MVDkR0SAWY3TfpHAIX8YTsk0vfsWCh0qVe+dkM2QTuJSn4A0btbofyH4gcoADg6I+2X/5LEY4mnTj89COtreBVAkXqEf87bbv+1w4/wRRiRNAYEtE+ec5YwIN4f98iQg7ksN13Z+M0LKEyiM4cCKHA8e3bajBrV2yk7YcJAJxxGOnmZoHfTvnJlp1N+06ZZUWljx461INa4cfT8jLu8XvuDjgJKCKCI0gTtYMfLyxdSQeEQKe8+Ayh8hYVhSHa3Pjc99zWhA+LW7mepuK6I3RMBjrCdMJkfIYTo/hpNAAVPkD7BCPq1j1E4H0gk0i/QoT+CaEIrmR0SoUtf++0kmsxuhdJeDLWAuTxzn4PqdOfxu66IvqYeQBtvhH5111u3UVMrGwkfu9PCrvHUO3VqZdq2bR5Fz10GT6SwsK3z1Z07Ldb1nTt3qu0mWLHaXp50BZQ4AKU8AvaWFUDxPtd7/xGPWy5uQHE/z8Tr8uxWmIntVZ5j63d1kJECSiUDCp96MolfHZSnstuA58EXdoxOK7vuVNdXE3YrTLXMlF76g5ICSiUDir4U6f9SaB9pH6kOJKcDCigKKBk/2teXP7mXX+Wmcku1DiigBACKbnWsL1uqXzalpzpV3XVAAUUBRT2UAB2o7i+/tk8BLtU6oIASYEzUQ9GXLdUvm9JTnaruOqCAkoaA8mKtWqZOQQvzos9fvChkkxEDTN32qfnfJLthA9Nu0TR75E0Yqd5KgD6U1xC8WCvLFMyZYJB3eWlpeQWmdNUBBZQAA1IVHkpW3Rwz7Pg2M+feJTPn/jv2aLtwahkDNPX6adNl1bwyz5NRstr5Tczgw6+byR+eNFM+OhU3zfpd2zk8Cq+ceR4PHw36FJrhJ6KXZImnXFCeJiMHOvzM+vS8GXFyh6ndLH3+dM7KzbH81e/WMS75BLVTnyuYpLMOKKCkEaB0XjnXzLp70WB0GNE2GtTLNB09pIwBqlPQPOUj3S6vzU8IUOp17WANZJOXBpm6bVo4B95VPArfbPwIM/vu23HljYcefFhA69HZAC6A4/Qbb5oX0+SfFQUUBYJ49DjT8yigpBGgjH+3xIx6c2+gkW2zYIqZ9qsz9mg1a3xUvinX3jB9ileaGbfOmZm33zJt5k920nPym5mJ7x+3Bnf85RIz9uIh03Lmy046ShwEKB2WzrL0MNbwBy3yC6AEeSRB/GBYp988Z4ETmvDL4Q63wfuoN/eYvjtes6AD8ACuvbasMMN/vj2Kb9qDFyeAIiGl3I5tbHubjY2s4YT3N+jQJksPDxCvTEKKyJW2iYwmXD5m8Nzk5W48pK+Z+vEvLD3kDy+kUQdt6bVluaWLlydppDca0semU9/QY9sigPeThxLGD6GxsRcOmpfO7LbeKjqR0yLP4adWw3qWHnKRfgHIaSt8vli7tpMXnRhSEtm9U9qjZwW3itIBBZQ0AhSMNwZiyJHNBiPmHV0Twqnfo7M1Ut6QF0aLUE+zl4eZ/rvXWEMk5Qcd3GDLNB0zxBpS6ui0Yo5jdFAuP0DJn/SS5Ye8jQb1NpN++XPHOAmgvPzOEWv4MH4v/aJ0ocYgfuAJELJtvXfJXnOPkRQlL1yzwNY76cpJkz95tGk5c5xp2L+HaTysn30uxr5B70J7j4fkBRRowUPX1Qss3YEHNlj5QA/wwhMUUC1cs8jSAWSQEQDXd2dk6X8Mue2Tks2mYb/utv2kQ79+9042DQCCN8BtzPkDTjsAH+6Z8wJsoCMhrzB+8FTJO2DvOutt0a/u/kbWPAMIkV3/PWtNVk5tU6term0zbYQ/ABMZtJ43yeFJZKxnBZWK0AEFlDQCFIxCt7WLIqPo++8Y5koa9Opaxhj4zaFgOHpsXGLz1m7ayBokjD5Kwyi604rZ9lpCL/EAyri3D9uyjJg5BKjgUwCF0S+jYI7e2151eA3jB57CQl4CKHVaRS/8BxjhfQF+0MAo41Vw7Qco5BVggJ8xbx2w7aAttA2vhLICKLQrcr/Ayl6uMe4YZcrxAQP3gIsAinglLaaPsX1HOUCPfNIHeA/cC6CE8SOAIh4UQDf6bGTbXDwb6JCHerwHHhweKM/tgODeJVMrt26ZfN5yel9WliqTxGWigOLzUqJIVTEp71bgRgN7WqOG4XM/5zoIUJq9PNzJi9HB0NlR6/137Aha6GBo4wEU5iAYjVvvAw/kpwPAEkAJCnlhMP34ER5iAQogKHndZ0CTkT8hHkI+BXMm2nx+gAIPgE9244bWCONhSRs447lBG0Bx19f0J+OPQZcwmbsc142H9nUABRlDh2fInWvax7V4icx7cQ+gxOIHsKCPpd2E1PCCuM/t1NbS8RtokE6fUw99hHfkDREKTT0nbixVZrFlpoCSpoCC8rZ7Zbo1Dl5FDgaU0m1LMSoycgZACDFBJysnMsL1AgrpAIi7LoyYjOLdz7mOD1D8+aE8YIPB99LlHg+FORi/tDot861Mum9YbMvjcZHPCyjCHx81YNSRR7e1r/jSFA+FDyGghSwkrAWAAVwCDG6exEMRHtyAQhiOOjlTRsJ19oOLGPyEAQqhQegS7nLz4r6Gd+abIjpQuk8IefLy8gwbV7Hnh7uMXsc2liqj2DJSQEkjQGE0TWgEo1+3XYGdsyAu71XkRAGFORkma/lUl9AUhsYLKGKAmSuR+YxOy2fbvMzLYGyZkG89NxKPl/zwy+S0HIRk4DfioQQDCrTgwxr8nwy5tDMMUMgDyFGWT6yljAAKbYRf+XhBgGD0uf32GfMulMGw44lwLYBCe+GLuRvCTDZfj862rsI1C623B3hgzAkjhQEKZQFy5jfwFvBq4FlCXmH8hAEKdPG00AHaQvuYC5LwGOmETamL+rl3HxMmTLC7ILLfh/u5XkfLSeWRnDwUUDwvnChSVYS8GA1jCOTAQ2jQq4vz4stXPZLOeeCByH7m1oD/ZCBpA2nioTBKxgDxDGPJhG77oukOXWkz8w3QIR+GFRAZfHiTww/PMYTkJ9TFvfeQz5zD+JH6mH+R8hK6Ii0WoGBAKQf4CS3vfyj844Ihl3TaI19xSZ0yYQ+gMEnPQRpnAFPK8hWZyIV0DDWgCzhwLyDq9lAoS5ukLu+kfBg/gD39JfW7Q148Y7DBZ9FCm/50f9kFbdJ6bFrq0BBaCxcutIBy7dq1MmmSR8/JGVOV2wtGASWNAAWFxDBgMCpiIpV5h+z6udbYJPKnPZPVuR1aO55LVb84PV9f6oSkEuWFz4ppu0zAUx5AweADoICveDVu2jyjX+QLM3da2DVg4/24wJ3fjx93etg1gOnHL58rAyh+9Z45c8YCyogRIxRQAt79MJlrWjjYKqAEKFVVeCgVpawtZ4y1E7TE1Rn5uke/FVVnRdDFoDPJjLF0/2dT3roEUMpLJx3K28+R7160KwX48XP37l2j3km4UfSTmz6LT2YKKDUAUBipElcnnt901CDfEXgmvDCsb9bz9WXO3EeqeCY0GDbJnap6KoMO8qEt7hBYZdSrdcRncKu7nBRQagCgVHcl1vapMVMdSA8dUEBRQNFYeoAOqJFKDyOl/ZA5/aCAEmBMqtMcir6QmfNCal9pX2WyDiigKKCohxKgA5n8YivvCkxVoQMKKAHGRD0UfSGr4oXUOlXvMlkHFFAUUAI9lAZ5LcyM4pP2GLU08ud4RSj78IVrTPu+peuQhdUxcf1+h6cXs+LbeyWMnqapAVcdSJ0OKKAooAQCSl7bTmbdB0/Mvif/YfZ/+V9OvuYdCs3R7//P7H38b86zLTe+t8/6TPRfBTfspT3w5R/N3H1llwnxK/Pq+Ttm663f2brq1It/O92FJZdtGfiW49Dz/3X496sr3merLv7aAIrx5td8qTNgKsv0kqUCigJKTEM4/+DFKEBp0bG7Y5Rbde1l6jZsbEq+ixjq/lMXxqTnNQKJAAplC0dMSBhQFh29bI58+4Np3b2fcwCMXl6SuT/w9I9mzt6zKaGVTP1aJr2Mak3uDwWUNAKUSRsPmuK7f2e23PytNdCMxN1Gb+zKYnP46z9ZY7r3yb+bDv2jw0QY5pk7T5l9n/+nzbP15m9tKImROOUOf/Nns+mjr03Jdz+aaVsjy6EXDh9vwYJRO8+pm1CX+6UIApQdd//eLDzyrnl59S6z894fbJ0CKF2GjHH4oG53yIw27fnsX23+XQ/+yfImHgohLfiW+mfvPmM2fPjMued5EKAAbvABuB355gczc2fpelgWUL75IYqO1BFLBvWb5puNV7+y8kFOu+7/o8munWMWHXvf6Q9kRzt3P/xnp44wGVD3+l9+YRa/cdUUf/q3lmf6qV6TZpa+m/f89l0MaV2HjXNoC+96VjBJJx1QQEkjQJm7/7w1sq9dum+GzFlhjeK8gxesEWnZuYdN23DlqRk8e7k11gef/XeUgcGQcqw494nBsFMWY4kRHFm03gIKxhCAAFxQxF7jZpo5+85ZcBo4Y7F9vva9x1F0gwAFAATEtt/5GzN50yFbD/VmZWVZAwjoDZq1zGy69tymYRipc83lz8zBr/7HDFuw2oIF/AmgIANoykuy9PT1KCPNcz9AYT4FTwGg6j9tkfUYoCuADKBwD0jLISAXSwaALAAFCHca+JJ57dI9k5PbwDQtaG86Dhhp27ri3C173abnAMt7LBnQDgHhzR//xvbpgsOXDOC17MyvrHxEBoA2/QVNeaZnBZJ01AEFlDQElOycyBLwzF9su/3X1ojgeWAQ69RvaO9HFm2w960KS1fcBUww3m5FE0DhGQZs8cmrdqRLXsmHMe45ZpqZvOmwwWPY/ehfnDTyBAEK4SPCSPCFIeQMoLTvO9ReD5230tJh1E3alM2RpfgZbUuIqF7jpjatvIDSY/QUS2fZmRsGoOPACONF0AYAhTaTLke/yZHtgUkPkgHyhneATuTlPfuFvGLJABr0hwC7m2ZBt762zm4jI1sFMHBYcuqjwPrdZfVagaYqdUABJc0AJWh0zkgdQyzKQngHQ9d7fGTjLJ5jMMev2ePk4RmAIuCBJ8HkNKEyypLeZ8Jsmw5tRu4YL0JmUg/nIEABzOBLQlLQBFAGTC+y9Ju16ejQwXAWnbhiQzrkGzSzdGl10soLKIQDoYs34T5m7YqEvcJCXmEy4Osz6HYfNdlpi1s2XPsBSpgMpDyAgscp9+4zobM1lx9Z8Kd+98DBnU+vFUDSSQcUUDIEUBjRY1iI3aNAhJK4b9dniGOQAA7CSG4FiwUohMDEC6IcoOMFFOYxCFEJXZmU9xo5+AFQOg8ebXnrOzmy9zvhIdJm7IjswijhI+jVzsm1aQIo5GEuQura/KvvyoS8CDNBr1HzAicfdfEsaJ4hDFDCZCCe17Rtkb3rhS/3mUGAhCbleSwZkA9A4as1KeM+T1i3z87ZACpej9GdT68VUNJJBxRQMgRQMJQYTLyFJgXtrDeBYRaAQamSARQm6Xfe/wfDJ7iEqKDhBRQxjoSIMLCxAAWQsBP8N743TQramkXH3rO8AwTwSVgOI8mcyvxDb9s0ARRpJ+Ee5kqg457opjxzCTzH2+IDAmQA/4Tf8E6Yb8rKzrbgKgATBiixZMDn0YAGYTVCYxh7CUvCD14GoERbSedZLBmQJwxQAGH6gj4nfEd+PVQG6a4DCigBL2pV/CmPUQ0KeaFIS05dswYGI4OxGTpvVZSR8XuGQeU55bff/r39KkvCODwjlINHIDQxcl5AId/KC586Bg5jT34/D0XmJUYsWuvkJ6/MZUBLgILngCJAIIACWPD1mPADmHgBBRp8BECojHwYeJ4RupJnkfI/2gl60gAf6uLae8SSARPt/IcDTQ7oABhCp+fY6c5Xa9Qvz8NkQB4LKG/ddvJLOTkDVPSdzJvJcz2X7UOVSXrIRAHFx8CgnFUBKPG8FBiXNj36OyPheMrEkwdwkNF1PPnjyYOXgDH2+wGRNCb1g+rEe3F7X/HUJ3n4siuZ9sQqgwcSxrPU7z6HycCdz+8aL07mp/zS9Vl6GFHth9J+UEDJMEBR5S1V3uoqC0KP4qXxmXJ1bae2q/rpsgKKAooarAAdqCqDx380rxz/wH6hV1U8aL3Vz9hXRp8qoAQYk3QNeVWGUmgdakxUB1QHktEBBRQFFPVQAnQgmRdKy6ghrsk6oICixkQBRXVAdUB1ICU6oICiipQSRarJozJtu3olqgMRHVBAUUBRQFEdUB1QHUiJDiighCjSypUrza1bt1IiaB3B6ChWdUB1oLrrgAJKCKA0aNDAPH361EydOlVBJURO1f0l0fYpEKgOxKcDCigxDOUvfvELc+eO/wJ+qmTxKZnKSeWkOlAzdEABJQagzJ071zx79sxkZ2eX8VKuX79uHj9+bLp161YmTV+gmvECaT9rP6sOlOqAAkoMQAEsAJQ+ffqUAY1Hjx7ZtP79+5dJUyUrVTKVhcpCdaBm6IACSgxAyc3NtaAxa1bpRlbycmzcuNEcOXLENG/eXAElhhxFZnquGYZF+7lm9rMCSgxDKB5K796lW+3qy1IzXxbtd+131YFwHVBAiQEoYXMoY8eONQsWLDD5+fnqocSQo76I4S+iykflUx10QAElhiHkK6+7d+/6AgZffzG/MmnSJN/06qAg2gY1dKoDqgPx6oACSgig1KtXz/6H4jd/goAfPnxoAaVfv34KKCFyjFcZNZ8aLtWBzNYBBZQQQ7hu3Trz4MEDX7Bo0qSJBZMbN274puuLkdkvhvaf9p/qQOI6oIASAihhCjVo0CDz8ccfm8GDByugJCnDMPlqWuIvs8pMZVbVOqCAosZQAVF1QHVAdSAlOqCAooqUEkWq6pGR1q+jc9WBqtcBBRQFFAUU1QHVAdWBlOjAX/AlUyIHe60nkj8VeTdv3mz8jrcvXTQcqahDaSSmByovlZfqgOqAVwcyBlBymuQY76GAogrtVWi9V51QHag6HciIkBfeSXajbPOzOj+LOgRQNHZa9bFT7QPtA9UB1YGMAJTt27fbHwzZ7GrH7h0OqCigqAKrEVMdUB1IHx3ICEDBQ/nLun9pTp05ZT7//HMFFJ1ATMkEohqi9DFE2hfVoy8yBlAIdxUtL7KeioS+1EOpHkqoxkT7UXWgeuhARgHKwqULFVDUO1HvRHVAdSBNdSCjAKVD9/aR1X1nTLJhL/VQqseoRken2o+qA9VDBzIKUAh1bdq6yXopzKUooFQPJVRjov2oOlA9dCCjAKVO0zoWTN7/5ftm5MsjFVDS1O1V41A9jIP2o/ZjojqQUYAyfe50G/Kq37y+hrwUTDSOrjqgOpBmOpBRgKJfeemIKdERk+ZXnVEdqDwdyChAKTleov+hpNmIRF/WyntZVdYq63TXgYwAFP6U/+KLL2y469iJY/pjo4KKhjpUB1QH0lAHMgJQ+FO+a59CUz8/MneiPzbqSC3dR2rKn+poTdSBjAEUARH3WT8b1pe2Jr602mbV+3TVAV2+PsH9YHRp7KpbGltlr7JXHUhvHcgYQNENttJbkfRF1/5RHVAdSDjkla6ulvKlYQDVAdUB1YGq1QEFlDT8UkJfiqp9KVT+Kn/VgeR0QAFFAUU/v1QdUB1QHUiJDiQFKF26dLE/GObl5aWECR0NJDcaULmp3FQHVAfSSQeSAhQa8Mknn5gTJ04ooOjIRnVAdUB1QHXA6kDSgDJ37ly78m+jRo1UmVSZVAdUB1QHVAdM0oDCJ4LPnj0zkyZNKqNIhw4dMo8fPzYrV64sk5ZO7pnyouEC1QHVAdWB1OlA0oBCJ7C+1tatW8uAxvnz5y3YFBcXl0nTzktd56ksVZaqA6oD6aQD5QKUBw8emFOnTpUBjRkzZpgjtqc2HAAAAOxJREFUR46YESNGlElLp8YrL/oyqg6oDqgOpE4HygUoQR6KdlDqOkhlqbJUHVAdyBQdSBpQwuZQevbsaRYsWGB69eqlHopO1KkOqA6oDtQQHUgaUMK+8jp69Ghk75Jjx1SRaogiZcoISvnU0b7qQMXpQNKAcuvWLd/5Ezrr7NmzFlC2bdumgKKAojqgOqA6UEN0IClAKSwstP+gtGrVyldRHj58aNMbNGjgm64jhIobIahsVbaqA6oDVaUDSQFKGLNZWVnm+vXr+g9KDRmRhOmCpqlhUx2oWTqQckBRBapZCqT9rf2tOqA6IDrw/9Mx5EZyt86KAAAAAElFTkSuQmCC&quot; alt=&quot;&quot;&gt;&lt;br&gt;&lt;/p&gt;&lt;p&gt;complation事件触发设置depandanceMap 的normalModuleFactory&lt;/p&gt;&lt;p&gt;constructor(context, entry,name) context/文件夹上下文 entry 文件路径 name: 模块名&lt;br&gt;&lt;br&gt;entry： {main: &#39;./src/a.js&#39;} main即是文件名；&lt;br&gt;&lt;br&gt;createDependancy 产出了dep字段&lt;br&gt;&amp;nbsp; &amp;nbsp;{&lt;/p&gt;&lt;ol class=&quot;children expanded&quot; style=&quot;box-sizing: border-box ; min-width: 0px ; min-height: 0px ; list-style-type: none ; padding-left: 12px ; color: rgb(32 , 33 , 36) ; font-family: &amp;#34;menlo&amp;#34; , monospace ; font-size: 11px ; white-space: pre-wrap&quot;&gt;&lt;li class=&quot;parent selected&quot; tabindex=&quot;0&quot; style=&quot;box-sizing: border-box ; min-width: 0px ; min-height: 16px ; outline-width: 0px ; text-overflow: ellipsis ; white-space: nowrap ; position: relative ; display: flex&quot;&gt;&lt;span class=&quot;name-and-value&quot; style=&quot;box-sizing: border-box ; min-width: 0px ; min-height: 0px ; overflow: hidden ; text-overflow: ellipsis ; line-height: 16px&quot;&gt;&lt;span class=&quot;name&quot; style=&quot;box-sizing: border-box ; min-width: 0px ; min-height: 0px&quot;&gt;loc&lt;/span&gt;:&amp;nbsp;&lt;span class=&quot;object-value-object value&quot; style=&quot;box-sizing: border-box ; min-width: 0px ; min-height: 0px&quot;&gt;{&lt;span class=&quot;name&quot; style=&quot;box-sizing: border-box ; min-width: 0px ; min-height: 0px&quot;&gt;name&lt;/span&gt;:&amp;nbsp;&lt;span class=&quot;object-value-string&quot; style=&quot;box-sizing: border-box ; min-width: 0px ; min-height: 0px ; white-space: pre&quot;&gt;&#39;main&#39;&lt;/span&gt;},&lt;/span&gt;&lt;/span&gt;&lt;/li&gt;&lt;li style=&quot;box-sizing: border-box ; min-width: 0px ; min-height: 16px ; text-overflow: ellipsis ; white-space: nowrap ; position: relative ; display: flex&quot;&gt;&lt;span class=&quot;name-and-value&quot; style=&quot;box-sizing: border-box ; min-width: 0px ; min-height: 0px ; overflow: hidden ; text-overflow: ellipsis ; line-height: 16px&quot;&gt;&lt;span class=&quot;name&quot; style=&quot;box-sizing: border-box ; min-width: 0px ; min-height: 0px&quot;&gt;module&lt;/span&gt;:&amp;nbsp;&lt;span class=&quot;object-value-null value&quot; style=&quot;box-sizing: border-box ; min-width: 0px ; min-height: 0px&quot;&gt;null,&lt;/span&gt;&lt;/span&gt;&lt;/li&gt;&lt;li style=&quot;box-sizing: border-box ; min-width: 0px ; min-height: 16px ; text-overflow: ellipsis ; white-space: nowrap ; position: relative ; display: flex&quot;&gt;&lt;span class=&quot;name-and-value&quot; style=&quot;box-sizing: border-box ; min-width: 0px ; min-height: 0px ; overflow: hidden ; text-overflow: ellipsis ; line-height: 16px&quot;&gt;&lt;span class=&quot;name&quot; style=&quot;box-sizing: border-box ; min-width: 0px ; min-height: 0px&quot;&gt;optional&lt;/span&gt;:&amp;nbsp;&lt;span class=&quot;object-value-boolean value&quot; style=&quot;box-sizing: border-box ; min-width: 0px ; min-height: 0px&quot;&gt;false,&lt;/span&gt;&lt;/span&gt;&lt;/li&gt;&lt;li style=&quot;box-sizing: border-box ; min-width: 0px ; min-height: 16px ; text-overflow: ellipsis ; white-space: nowrap ; position: relative ; display: flex&quot;&gt;&lt;span class=&quot;name-and-value&quot; style=&quot;box-sizing: border-box ; min-width: 0px ; min-height: 0px ; overflow: hidden ; text-overflow: ellipsis ; line-height: 16px&quot;&gt;&lt;span class=&quot;name&quot; style=&quot;box-sizing: border-box ; min-width: 0px ; min-height: 0px&quot;&gt;request&lt;/span&gt;:&amp;nbsp;&lt;span class=&quot;object-value-string value&quot; style=&quot;box-sizing: border-box ; min-width: 0px ; min-height: 0px ; white-space: pre&quot;&gt;&quot;./src/index.js&quot;,&lt;/span&gt;&lt;/span&gt;&lt;/li&gt;&lt;li style=&quot;box-sizing: border-box ; min-width: 0px ; min-height: 16px ; text-overflow: ellipsis ; white-space: nowrap ; position: relative ; display: flex&quot;&gt;&lt;span class=&quot;name-and-value&quot; style=&quot;box-sizing: border-box ; min-width: 0px ; min-height: 0px ; overflow: hidden ; text-overflow: ellipsis ; line-height: 16px&quot;&gt;&lt;span class=&quot;name&quot; style=&quot;box-sizing: border-box ; min-width: 0px ; min-height: 0px&quot;&gt;userRequest&lt;/span&gt;:&amp;nbsp;&lt;span class=&quot;object-value-string value&quot; style=&quot;box-sizing: border-box ; min-width: 0px ; min-height: 0px ; white-space: pre&quot;&gt;&quot;./src/index.js&quot;,&lt;/span&gt;&lt;/span&gt;&lt;/li&gt;&lt;li class=&quot;&quot; style=&quot;box-sizing: border-box ; min-width: 0px ; min-height: 16px ; text-overflow: ellipsis ; white-space: nowrap ; position: relative ; display: flex&quot;&gt;}&lt;/li&gt;&lt;/ol&gt;&lt;p&gt;&lt;br&gt;&lt;/p&gt;" style="text;html=1;strokeColor=none;fillColor=none;spacing=5;spacingTop=-20;whiteSpace=wrap;overflow=hidden;rounded=0;" vertex="1" parent="1">
          <mxGeometry x="-550" y="-980" width="480" height="670" as="geometry" />
        </mxCell>
        <mxCell id="pEGMGXlAXhKO9HlwLJ9M-27" value="&lt;h1&gt;NormalModuleFactory&lt;/h1&gt;&lt;div&gt;compier.js 中生成&lt;/div&gt;" style="text;html=1;strokeColor=none;fillColor=none;spacing=5;spacingTop=-20;whiteSpace=wrap;overflow=hidden;rounded=0;" vertex="1" parent="1">
          <mxGeometry x="100" y="-530" width="420" height="270" as="geometry" />
        </mxCell>
        <mxCell id="pEGMGXlAXhKO9HlwLJ9M-28" value="&lt;h1&gt;webpack/lib/compilation.js&amp;nbsp;&lt;/h1&gt;&lt;div&gt;addEntry(context,entry,name,callback) 由singleEntryPlugin调用&lt;br&gt;&lt;br&gt;&lt;br&gt;&lt;br&gt;_addModuleChain（context，dependancy, onModule,callback） 这个由addEntry调用，dependancy也就是entry加工后的对象&lt;br&gt;注意里面的这句话：这个获取出来的NormalModuleFactory&lt;br&gt;&lt;div style=&quot;font-family: &amp;#34;menlo&amp;#34; , &amp;#34;monaco&amp;#34; , &amp;#34;courier new&amp;#34; , monospace ; line-height: 18px ; white-space: pre&quot;&gt;&lt;span style=&quot;background-color: rgb(255 , 255 , 255)&quot;&gt;const moduleFactory = this.dependencyFactories.get(Dep);&lt;/span&gt;&lt;/div&gt;&lt;/div&gt;&lt;div style=&quot;font-family: &amp;#34;menlo&amp;#34; , &amp;#34;monaco&amp;#34; , &amp;#34;courier new&amp;#34; , monospace ; line-height: 18px ; white-space: pre&quot;&gt;&lt;span style=&quot;background-color: rgb(255 , 255 , 255)&quot;&gt;&lt;br&gt;&lt;/span&gt;&lt;/div&gt;&lt;div style=&quot;font-family: &amp;#34;menlo&amp;#34; , &amp;#34;monaco&amp;#34; , &amp;#34;courier new&amp;#34; , monospace ; line-height: 18px ; white-space: pre&quot;&gt;&lt;span style=&quot;background-color: rgb(255 , 255 , 255)&quot;&gt;this.semaphore 这个是信号量；默认100；&lt;/span&gt;&lt;/div&gt;" style="text;html=1;strokeColor=none;fillColor=none;spacing=5;spacingTop=-20;whiteSpace=wrap;overflow=hidden;rounded=0;" vertex="1" parent="1">
          <mxGeometry x="37.5" y="-880" width="525" height="320" as="geometry" />
        </mxCell>
        <mxCell id="pEGMGXlAXhKO9HlwLJ9M-29" value="优化" style="text;html=1;strokeColor=none;fillColor=none;align=center;verticalAlign=middle;whiteSpace=wrap;rounded=0;" vertex="1" parent="1">
          <mxGeometry x="368" y="460" width="90" height="20" as="geometry" />
        </mxCell>
        <mxCell id="pEGMGXlAXhKO9HlwLJ9M-45" style="edgeStyle=orthogonalEdgeStyle;rounded=0;orthogonalLoop=1;jettySize=auto;html=1;entryX=0.5;entryY=0;entryDx=0;entryDy=0;fontFamily=Comic Sans MS;" edge="1" parent="1" source="pEGMGXlAXhKO9HlwLJ9M-30" target="pEGMGXlAXhKO9HlwLJ9M-44">
          <mxGeometry relative="1" as="geometry" />
        </mxCell>
        <mxCell id="pEGMGXlAXhKO9HlwLJ9M-30" value="compiler = webpack(&lt;u&gt;&lt;font color=&quot;#002aff&quot;&gt;options&lt;/font&gt;&lt;/u&gt;)" style="html=1;whiteSpace=wrap;comic=1;strokeWidth=2;fontFamily=Comic Sans MS;fontStyle=1;" vertex="1" parent="1">
          <mxGeometry x="-590" y="660" width="120" height="50" as="geometry" />
        </mxCell>
        <mxCell id="pEGMGXlAXhKO9HlwLJ9M-33" value="webpack-cli/bin/cli.js" style="rounded=1;whiteSpace=wrap;html=1;strokeWidth=2;fillWeight=4;hachureGap=8;hachureAngle=45;sketch=1;comic=1;fontFamily=Comic Sans MS;fillColor=#FCFCFC;" vertex="1" parent="1">
          <mxGeometry x="-770" y="650" width="120" height="60" as="geometry" />
        </mxCell>
        <mxCell id="pEGMGXlAXhKO9HlwLJ9M-35" value="webpack.js" style="rounded=1;whiteSpace=wrap;html=1;strokeWidth=2;fillWeight=4;hachureGap=8;hachureAngle=45;sketch=1;comic=1;fontFamily=Comic Sans MS;fillColor=#FCFCFC;" vertex="1" parent="1">
          <mxGeometry x="-430" y="550" width="120" height="60" as="geometry" />
        </mxCell>
        <mxCell id="pEGMGXlAXhKO9HlwLJ9M-40" style="edgeStyle=orthogonalEdgeStyle;rounded=0;orthogonalLoop=1;jettySize=auto;html=1;fontFamily=Comic Sans MS;" edge="1" parent="1" source="pEGMGXlAXhKO9HlwLJ9M-38" target="pEGMGXlAXhKO9HlwLJ9M-39">
          <mxGeometry relative="1" as="geometry" />
        </mxCell>
        <mxCell id="pEGMGXlAXhKO9HlwLJ9M-38" value="new Compiler(options)" style="html=1;whiteSpace=wrap;comic=1;strokeWidth=2;fontFamily=Comic Sans MS;fontStyle=1;" vertex="1" parent="1">
          <mxGeometry x="-430" y="740" width="120" height="50" as="geometry" />
        </mxCell>
        <mxCell id="pEGMGXlAXhKO9HlwLJ9M-39" value="&lt;ol&gt;&lt;li&gt;berforeRun&lt;/li&gt;&lt;li&gt;Run&lt;/li&gt;&lt;li&gt;&lt;font color=&quot;#ffd500&quot;&gt;Compile&lt;/font&gt;&lt;/li&gt;&lt;/ol&gt;" style="text;fillColor=none;html=1;whiteSpace=wrap;verticalAlign=middle;overflow=hidden;comic=1;fontFamily=Comic Sans MS;strokeWidth=2;perimeterSpacing=2;strokeColor=#000000;" vertex="1" parent="1">
          <mxGeometry x="-430" y="820" width="120" height="80" as="geometry" />
        </mxCell>
        <mxCell id="pEGMGXlAXhKO9HlwLJ9M-41" value="&lt;ol&gt;&lt;li&gt;beforeCompile&lt;/li&gt;&lt;li&gt;complie&lt;/li&gt;&lt;li&gt;make&lt;/li&gt;&lt;/ol&gt;" style="text;fillColor=none;html=1;whiteSpace=wrap;verticalAlign=middle;overflow=hidden;comic=1;fontFamily=Comic Sans MS;strokeColor=#000000;" vertex="1" parent="1">
          <mxGeometry x="-445" y="940" width="150" height="80" as="geometry" />
        </mxCell>
        <mxCell id="pEGMGXlAXhKO9HlwLJ9M-43" value="" style="line;strokeWidth=2;direction=south;html=1;comic=1;fontFamily=Comic Sans MS;fillColor=#FCFCFC;" vertex="1" parent="1">
          <mxGeometry x="-370" y="880" width="10" height="60" as="geometry" />
        </mxCell>
        <mxCell id="pEGMGXlAXhKO9HlwLJ9M-44" value="compiler.run()" style="html=1;whiteSpace=wrap;comic=1;strokeWidth=2;fontFamily=Comic Sans MS;fontStyle=1;" vertex="1" parent="1">
          <mxGeometry x="-590" y="750" width="120" height="50" as="geometry" />
        </mxCell>
        <mxCell id="pEGMGXlAXhKO9HlwLJ9M-46" value="reduceArg" style="html=1;whiteSpace=wrap;comic=1;strokeWidth=2;fontFamily=Comic Sans MS;fontStyle=1;" vertex="1" parent="1">
          <mxGeometry x="-590" y="550" width="120" height="50" as="geometry" />
        </mxCell>
        <mxCell id="pEGMGXlAXhKO9HlwLJ9M-50" value="" style="curved=1;endArrow=classic;html=1;rounded=0;edgeStyle=orthogonalEdgeStyle;fontFamily=Comic Sans MS;exitX=0.5;exitY=1;exitDx=0;exitDy=0;entryX=0.75;entryY=0.6;entryDx=0;entryDy=0;entryPerimeter=0;" edge="1" parent="1" source="pEGMGXlAXhKO9HlwLJ9M-46" target="pEGMGXlAXhKO9HlwLJ9M-30">
          <mxGeometry width="50" height="50" relative="1" as="geometry">
            <mxPoint x="-530" y="730" as="sourcePoint" />
            <mxPoint x="-440" y="640" as="targetPoint" />
            <Array as="points">
              <mxPoint x="-530" y="630" />
              <mxPoint x="-520" y="630" />
              <mxPoint x="-520" y="640" />
              <mxPoint x="-500" y="640" />
            </Array>
          </mxGeometry>
        </mxCell>
        <mxCell id="pEGMGXlAXhKO9HlwLJ9M-51" value="reduceOptions" style="html=1;whiteSpace=wrap;comic=1;strokeWidth=2;fontFamily=Comic Sans MS;fontStyle=1;" vertex="1" parent="1">
          <mxGeometry x="-430" y="660" width="120" height="50" as="geometry" />
        </mxCell>
      </root>
    </mxGraphModel>
  </diagram>
</mxfile>
